<svg width="14" height="12" viewBox="0 0 14 12" fill="none" xmlns="http://www.w3.org/2000/svg">
<path d="M13.085 5.5C13.085 5.23437 12.9756 4.97656 12.7959 4.78906L12.21 4.20312C12.0225 4.02344 11.7646 3.91406 11.499 3.91406C11.2334 3.91406 10.9756 4.02344 10.7959 4.20312L8.49902 6.5V1C8.49902 0.453125 8.0459 -5.96046e-07 7.49902 -5.96046e-07H6.49902C5.95215 -5.96046e-07 5.49902 0.453125 5.49902 1V6.5L3.20215 4.20312C3.02246 4.02344 2.76465 3.91406 2.49902 3.91406C2.2334 3.91406 1.97559 4.02344 1.78809 4.20312L1.20996 4.78906C1.02246 4.97656 0.913086 5.23437 0.913086 5.5C0.913086 5.76562 1.02246 6.02344 1.20996 6.20312L6.2959 11.2969C6.47559 11.4766 6.7334 11.5859 6.99902 11.5859C7.26465 11.5859 7.52246 11.4766 7.70996 11.2969L12.7959 6.20312C12.9756 6.02344 13.085 5.76562 13.085 5.5Z" fill="#FA5D43"/>
</svg>
