<svg width="5" height="8" viewBox="0 0 5 8" fill="none" xmlns="http://www.w3.org/2000/svg">
<path d="M0.749998 0.126954C0.687498 0.126954 0.617186 0.158205 0.570311 0.205079L0.179686 0.595705C0.132811 0.642579 0.101561 0.712892 0.101561 0.775392C0.101561 0.837892 0.132811 0.908204 0.179686 0.95508L3.25 4.02539L0.179686 7.0957C0.132811 7.14258 0.101561 7.21289 0.101561 7.27539C0.101561 7.3457 0.132811 7.4082 0.179686 7.45508L0.570311 7.8457C0.617186 7.89258 0.687499 7.92383 0.749999 7.92383C0.812499 7.92383 0.882811 7.89258 0.929686 7.8457L4.57031 4.20508C4.61719 4.1582 4.64844 4.08789 4.64844 4.02539C4.64844 3.96289 4.61719 3.89258 4.57031 3.8457L0.929686 0.205079C0.882811 0.158205 0.812498 0.126954 0.749998 0.126954Z" fill="black"/>
</svg>
