<svg width="14" height="8" viewBox="0 0 14 8" fill="none" xmlns="http://www.w3.org/2000/svg">
<path d="M13.1292 1.17857C13.1292 1.08036 13.0801 0.969865 13.0064 0.896205L12.3926 0.282365C12.3189 0.208705 12.2084 0.159598 12.1102 0.159598C12.012 0.159598 11.9015 0.208705 11.8278 0.282365L7.00307 5.10714L2.17829 0.282365C2.10463 0.208705 1.99414 0.159598 1.89593 0.159598C1.78544 0.159598 1.68722 0.208705 1.61356 0.282365L0.999721 0.896205C0.92606 0.969865 0.876953 1.08036 0.876953 1.17857C0.876953 1.27679 0.92606 1.38728 0.999721 1.46094L6.7207 7.18192C6.79436 7.25558 6.90486 7.30469 7.00307 7.30469C7.10128 7.30469 7.21177 7.25558 7.28544 7.18192L13.0064 1.46094C13.0801 1.38728 13.1292 1.27679 13.1292 1.17857Z" fill="#FA5D43"/>
</svg>
