<svg width="9" height="7" viewBox="0 0 9 7" fill="none" xmlns="http://www.w3.org/2000/svg">
<path d="M8.25167 1.78683C8.34542 1.88058 8.3923 1.99442 8.3923 2.12835C8.3923 2.26228 8.34542 2.37612 8.25167 2.46987L4.61551 6.10603L3.93248 6.78906C3.83873 6.88281 3.72489 6.92969 3.59096 6.92969C3.45703 6.92969 3.34319 6.88281 3.24944 6.78906L2.56641 6.10603L0.748326 4.28795C0.654576 4.1942 0.607701 4.08036 0.607701 3.94643C0.607701 3.8125 0.654576 3.69866 0.748326 3.60491L1.43136 2.92187C1.52511 2.82812 1.63895 2.78125 1.77288 2.78125C1.90681 2.78125 2.02065 2.82812 2.1144 2.92187L3.59096 4.40346L6.8856 1.10379C6.97935 1.01004 7.09319 0.963169 7.22712 0.963169C7.36105 0.963169 7.47489 1.01004 7.56864 1.10379L8.25167 1.78683Z" fill="#fff"/>
</svg>
