<svg width="10" height="10" viewBox="0 0 10 10" fill="none" xmlns="http://www.w3.org/2000/svg">
<path d="M4.44827 4.99937L0.115691 0.666773C-0.0368471 0.514234 -0.0368471 0.266923 0.115691 0.114404C0.26823 -0.0381151 0.515541 -0.0381346 0.66806 0.114404L5.00065 4.447L9.33323 0.114404C9.48577 -0.0381346 9.73308 -0.0381346 9.8856 0.114404C10.0381 0.266942 10.0381 0.514254 9.8856 0.666773L5.55302 4.99935L9.8856 9.33194C10.0381 9.48448 10.0381 9.73179 9.8856 9.88431C9.80934 9.96057 9.70937 9.99869 9.6094 9.99869C9.50943 9.99869 9.40949 9.96057 9.33321 9.88431L5.00065 5.55173L0.66808 9.88431C0.591821 9.96057 0.491853 9.99869 0.391886 9.99869C0.291919 9.99869 0.191971 9.96057 0.115691 9.88431C-0.0368471 9.73177 -0.0368471 9.48446 0.115691 9.33194L4.44827 4.99937Z" fill="#F3F4F6"/>
</svg>
