<svg width="20" height="16" viewBox="0 0 20 16" fill="none" xmlns="http://www.w3.org/2000/svg">
<path d="M6.53333 11.0667C7.46667 11.0667 8.4 11.4667 9.06667 12.1333C9.73333 12.8 10.1333 13.6 10.1333 14.6667C10.1333 15.0667 10 15.4667 9.73333 15.7333C9.46667 16 8.93333 16 8.53333 16H1.46667C1.06667 16 0.666667 15.8667 0.4 15.6C0.133333 15.3333 0 14.9333 0 14.5333C0 13.6 0.4 12.6667 1.06667 12C1.73333 11.3333 2.53333 10.9333 3.6 10.9333C3.73333 10.9333 3.73333 10.9333 3.86667 10.9333C4.26667 11.0667 4.66667 11.2 5.2 11.2C5.73333 11.2 6 11.0667 6.53333 10.9333C6.4 11.0667 6.4 11.0667 6.53333 11.0667ZM7.06667 9.06667C6.53333 9.6 5.73333 10 4.93333 10C4.13333 10 3.46667 9.73333 2.93333 9.06667C2.4 8.4 2 7.73333 2 6.93333C2 6.13333 2.26667 5.33333 2.93333 4.8C3.6 4.26667 4.13333 4 5.06667 4C6 4 6.66667 4.26667 7.2 4.93333C7.73333 5.6 8 6.13333 8 7.06667C8 8 7.73333 8.53333 7.06667 9.06667ZM18.5333 0C18.9333 0 19.3333 0.133333 19.6 0.4C19.8667 0.666667 20 1.06667 20 1.6V11.4667C20 11.8667 19.8667 12.2667 19.6 12.5333C19.3333 12.8 18.9333 12.9333 18.5333 12.9333H10.8C10.6667 12.2667 10.2667 11.6 9.6 11.0667H12V9.06667H16V11.0667H18V2H7.06667V3.6C6.4 3.2 5.73333 3.06667 5.06667 3.06667V1.6C5.06667 1.2 5.2 0.8 5.46667 0.533333C5.73333 0.266667 6.13333 0 6.53333 0H18.5333Z" fill="white"/>
</svg>
