<svg width="16" height="16" viewBox="0 0 16 16" fill="none" xmlns="http://www.w3.org/2000/svg">
<path d="M7.33333 7.46667C7.46667 7.6 7.46667 7.73333 7.46667 7.86667V15.6C7.46667 15.7333 7.33333 15.8667 7.2 16C7.06667 16.1333 7.06667 16 6.93333 16C5.46667 15.3333 3.46667 14.8 0.933333 14.6667C0.666667 14.6667 0.533333 14.5333 0.4 14.4C0.266667 14.2667 0 14 0 13.8667V6.8C0 6.53333 0.133333 6.4 0.266667 6.13333C0.4 5.86667 0.666667 5.86667 0.933333 5.86667C3.73333 6.13333 5.86667 6.66667 7.33333 7.46667ZM10.1333 0.933333C10.6667 1.46667 11.0667 2.26667 11.0667 3.06667C11.0667 3.86667 10.6667 4.53333 10.1333 5.06667C9.6 5.6 8.8 6 8 6C7.2 6 6.4 5.73333 5.86667 5.06667C5.33333 4.4 4.93333 3.73333 4.93333 2.93333C4.93333 2.13333 5.33333 1.46667 5.86667 0.933333C6.4 0.4 7.2 0 8 0C8.8 0 9.6 0.266667 10.1333 0.933333ZM15.0667 6C15.2 6 15.3333 6 15.6 6.13333C15.8667 6.26667 15.8667 6.26667 16 6.4C16.1333 6.53333 16 6.66667 16 6.8V13.7333C16 14 15.8667 14.1333 15.7333 14.2667C15.6 14.4 15.4667 14.6667 15.2 14.6667C12.6667 14.8 10.6667 15.2 9.2 16C9.06667 16 8.93333 16.1333 8.93333 16C8.93333 15.8667 8.8 15.8667 8.66667 15.8667C8.53333 15.8667 8.53333 15.7333 8.53333 15.6V7.86667C8.53333 7.73333 8.53333 7.6 8.66667 7.46667C10.1333 6.66667 12.2667 6.13333 15.0667 6Z" fill="white"/>
</svg>
