<svg width="10" height="16" viewBox="0 0 10 16" xmlns="http://www.w3.org/2000/svg">
<path d="M9 7.20039H2.4V4.20039C2.4 2.76675 3.56636 1.60039 5 1.60039C6.43364 1.60039 7.6 2.76675 7.6 4.20039V5.40039C7.6 5.73175 7.86864 6.00039 8.2 6.00039C8.53136 6.00039 8.8 5.73175 8.8 5.40039V4.20039C8.8 2.10507 7.09532 0.400391 5 0.400391C2.90468 0.400391 1.2 2.10507 1.2 4.20039V7.20039H1C0.44772 7.20039 0 7.64811 0 8.20039V14.6004C0 15.1527 0.44772 15.6004 1 15.6004H9C9.55228 15.6004 10 15.1527 10 14.6004V8.20039C10 7.64811 9.55228 7.20039 9 7.20039ZM3.8 10.6004C3.8 9.93763 4.33724 9.40039 5 9.40039C5.66272 9.40039 6.2 9.93763 6.2 10.6004C6.2 11.0445 5.9586 11.4319 5.6 11.6395V13.4004H4.4V11.6395C4.0414 11.4319 3.8 11.0445 3.8 10.6004Z"/>
</svg>
