<svg width="11" height="9" viewBox="0 0 11 9" xmlns="http://www.w3.org/2000/svg">
<path d="M5.06641 4.32031C5.11849 4.3724 5.14453 4.43229 5.14453 4.5C5.14453 4.56771 5.11849 4.6276 5.06641 4.67969L1.42578 8.32031C1.3737 8.3724 1.3138 8.39844 1.24609 8.39844C1.17839 8.39844 1.11849 8.3724 1.06641 8.32031L0.675781 7.92969C0.623698 7.8776 0.597656 7.81771 0.597656 7.75C0.597656 7.68229 0.623698 7.6224 0.675781 7.57031L3.74609 4.5L0.675781 1.42969C0.623698 1.3776 0.597656 1.31771 0.597656 1.25C0.597656 1.18229 0.623698 1.1224 0.675781 1.07031L1.06641 0.679687C1.11849 0.627603 1.17839 0.601562 1.24609 0.601562C1.3138 0.601562 1.3737 0.627603 1.42578 0.679687L5.06641 4.32031ZM10.0703 4.32031C10.1224 4.3724 10.1484 4.43229 10.1484 4.5C10.1484 4.56771 10.1224 4.6276 10.0703 4.67969L6.42969 8.32031C6.3776 8.3724 6.31771 8.39844 6.25 8.39844C6.18229 8.39844 6.1224 8.3724 6.07031 8.32031L5.67969 7.92969C5.6276 7.8776 5.60156 7.81771 5.60156 7.75C5.60156 7.68229 5.6276 7.6224 5.67969 7.57031L8.75 4.5L5.67969 1.42969C5.6276 1.3776 5.60156 1.31771 5.60156 1.25C5.60156 1.18229 5.6276 1.1224 5.67969 1.07031L6.07031 0.679687C6.1224 0.627603 6.18229 0.601562 6.25 0.601562C6.31771 0.601562 6.3776 0.627603 6.42969 0.679687L10.0703 4.32031Z"/>
</svg>
