<svg width="5" height="9" viewBox="0 0 5 9" xmlns="http://www.w3.org/2000/svg">
<path d="M4.56836 4.32031C4.62044 4.3724 4.64648 4.43229 4.64648 4.5C4.64648 4.56771 4.62044 4.6276 4.56836 4.67969L0.927734 8.32031C0.875651 8.3724 0.815755 8.39844 0.748047 8.39844C0.680339 8.39844 0.620443 8.3724 0.568359 8.32031L0.177734 7.92969C0.125651 7.8776 0.0996094 7.81771 0.0996094 7.75C0.0996094 7.68229 0.125651 7.6224 0.177734 7.57031L3.24805 4.5L0.177734 1.42969C0.125651 1.3776 0.0996094 1.31771 0.0996094 1.25C0.0996094 1.18229 0.125651 1.1224 0.177734 1.07031L0.568359 0.679687C0.620443 0.627603 0.680339 0.601562 0.748047 0.601562C0.815755 0.601562 0.875651 0.627603 0.927734 0.679687L4.56836 4.32031Z" fill-opacity="0.2"/>
</svg>
