<svg width="5" height="9" viewBox="0 0 5 9" xmlns="http://www.w3.org/2000/svg">
<path d="M4.81836 1.07031C4.87044 1.1224 4.89648 1.18229 4.89648 1.25C4.89648 1.31771 4.87044 1.3776 4.81836 1.42969L1.74805 4.5L4.81836 7.57031C4.87044 7.6224 4.89648 7.68229 4.89648 7.75C4.89648 7.81771 4.87044 7.8776 4.81836 7.92969L4.42773 8.32031C4.37565 8.3724 4.31576 8.39844 4.24805 8.39844C4.18034 8.39844 4.12044 8.3724 4.06836 8.32031L0.427734 4.67969C0.375651 4.6276 0.349609 4.56771 0.349609 4.5C0.349609 4.43229 0.375651 4.3724 0.427734 4.32031L4.06836 0.679687C4.12044 0.627603 4.18034 0.601562 4.24805 0.601562C4.31576 0.601562 4.37565 0.627603 4.42773 0.679687L4.81836 1.07031Z" fill-opacity="0.2"/>
</svg>
