<svg width="11" height="9" viewBox="0 0 11 9" xmlns="http://www.w3.org/2000/svg">
<path d="M5.31641 1.07031C5.36849 1.1224 5.39453 1.18229 5.39453 1.25C5.39453 1.31771 5.36849 1.3776 5.31641 1.42969L2.24609 4.5L5.31641 7.57031C5.36849 7.6224 5.39453 7.68229 5.39453 7.75C5.39453 7.81771 5.36849 7.8776 5.31641 7.92969L4.92578 8.32031C4.8737 8.3724 4.8138 8.39844 4.74609 8.39844C4.67839 8.39844 4.61849 8.3724 4.56641 8.32031L0.925781 4.67969C0.873698 4.6276 0.847656 4.56771 0.847656 4.5C0.847656 4.43229 0.873698 4.3724 0.925781 4.32031L4.56641 0.679687C4.61849 0.627603 4.67839 0.601562 4.74609 0.601562C4.8138 0.601562 4.8737 0.627603 4.92578 0.679687L5.31641 1.07031ZM10.3203 1.07031C10.3724 1.1224 10.3984 1.18229 10.3984 1.25C10.3984 1.31771 10.3724 1.3776 10.3203 1.42969L7.25 4.5L10.3203 7.57031C10.3724 7.6224 10.3984 7.68229 10.3984 7.75C10.3984 7.81771 10.3724 7.8776 10.3203 7.92969L9.92969 8.32031C9.8776 8.3724 9.81771 8.39844 9.75 8.39844C9.68229 8.39844 9.6224 8.3724 9.57031 8.32031L5.92969 4.67969C5.8776 4.6276 5.85156 4.56771 5.85156 4.5C5.85156 4.43229 5.8776 4.3724 5.92969 4.32031L9.57031 0.679687C9.6224 0.627603 9.68229 0.601562 9.75 0.601562C9.81771 0.601562 9.8776 0.627603 9.92969 0.679687L10.3203 1.07031Z"/>
</svg>
