<svg width="14" height="13" viewBox="0 0 14 13" xmlns="http://www.w3.org/2000/svg">
<path d="M8.46777 7.97656C9.15527 7.28906 9.49902 6.46354 9.49902 5.5C9.49902 4.53646 9.15527 3.71354 8.46777 3.03125C7.78548 2.34375 6.96257 2 5.99902 2C5.03548 2 4.20996 2.34375 3.52246 3.03125C2.84017 3.71354 2.49902 4.53646 2.49902 5.5C2.49902 6.46354 2.84017 7.28906 3.52246 7.97656C4.20996 8.65885 5.03548 9 5.99902 9C6.96257 9 7.78548 8.65885 8.46777 7.97656ZM13.499 12C13.499 12.2708 13.4001 12.5052 13.2021 12.7031C13.0042 12.901 12.7699 13 12.499 13C12.2178 13 11.9834 12.901 11.7959 12.7031L9.11621 10.0312C8.18392 10.6771 7.14486 11 5.99902 11C5.25423 11 4.54069 10.8568 3.8584 10.5703C3.18132 10.2786 2.59538 9.88802 2.10059 9.39844C1.611 8.90365 1.22038 8.31771 0.928711 7.64062C0.642253 6.95833 0.499023 6.24479 0.499023 5.5C0.499023 4.75521 0.642253 4.04427 0.928711 3.36719C1.22038 2.6849 1.611 2.09896 2.10059 1.60937C2.59538 1.11458 3.18132 0.723958 3.8584 0.437499C4.54069 0.145833 5.25423 -5.96046e-07 5.99902 -5.96046e-07C6.74382 -5.96046e-07 7.45475 0.145833 8.13184 0.437499C8.81413 0.723958 9.40007 1.11458 9.88965 1.60937C10.3844 2.09896 10.7751 2.6849 11.0615 3.36719C11.3532 4.04427 11.499 4.75521 11.499 5.5C11.499 6.64583 11.1761 7.6849 10.5303 8.61719L13.21 11.2969C13.4027 11.4896 13.499 11.724 13.499 12Z"/>
</svg>
