<svg width="18" height="18" viewBox="0 0 18 18" xmlns="http://www.w3.org/2000/svg">
    <path class="star-path" d="M17.9523 6.89104C17.816 6.4715 17.41 6.18324 16.8385 6.10016L12.1799 5.42313L10.0963 1.20177C9.84073 0.683899 9.4411 0.386719 9 0.386719C8.5589 0.386719 8.15927 0.683899 7.9037 1.2019L5.82042 5.42313L1.16167 6.10016C0.589966 6.18324 0.183884 6.4715 0.0476535 6.89104C-0.088577 7.31058 0.0704501 7.78244 0.484085 8.1855L3.85524 11.4714L3.05928 16.1113C2.95752 16.7047 3.13097 17.0603 3.29439 17.2542C3.4861 17.4816 3.7657 17.6068 4.0817 17.6068C4.31941 17.6068 4.57224 17.5372 4.8333 17.4L9 15.2095L13.167 17.4001C13.4279 17.5373 13.6807 17.6068 13.9184 17.6068H13.9186C14.2344 17.6068 14.5142 17.4816 14.7059 17.2542C14.8692 17.0604 15.0428 16.7047 14.9409 16.1113L14.145 11.4714L17.5161 8.1855C17.9296 7.78244 18.0886 7.31058 17.9523 6.89104Z"/>
    <path class="star-path-evenodd"  fill-rule="evenodd" clip-rule="evenodd" d="M9 0.386719C8.5589 0.386719 8.15927 0.683899 7.9037 1.2019L5.82042 5.42313L1.16167 6.10016C0.589966 6.18324 0.183884 6.4715 0.0476535 6.89104C-0.088577 7.31058 0.0704501 7.78244 0.484085 8.1855L3.85524 11.4714L3.05928 16.1113C2.95752 16.7047 3.13097 17.0603 3.29439 17.2542C3.4861 17.4816 3.7657 17.6068 4.0817 17.6068C4.31941 17.6068 4.57224 17.5372 4.8333 17.4L9 15.2095V0.386719Z"/>
</svg>