<svg width="118" height="18" viewBox="0 0 118 18" fill="none" xmlns="http://www.w3.org/2000/svg">
<path d="M17.9523 6.89104C17.816 6.4715 17.41 6.18324 16.8385 6.10016L12.1799 5.42313L10.0963 1.20177C9.84073 0.683899 9.4411 0.386719 9 0.386719C8.5589 0.386719 8.15927 0.683899 7.9037 1.2019L5.82042 5.42313L1.16167 6.10016C0.589966 6.18324 0.183884 6.4715 0.0476535 6.89104C-0.088577 7.31058 0.0704501 7.78244 0.484085 8.1855L3.85524 11.4714L3.05928 16.1113C2.95752 16.7047 3.13097 17.0603 3.29439 17.2542C3.4861 17.4816 3.7657 17.6068 4.0817 17.6068C4.31941 17.6068 4.57224 17.5372 4.8333 17.4L9 15.2095L13.167 17.4001C13.4279 17.5373 13.6807 17.6068 13.9184 17.6068H13.9186C14.2344 17.6068 14.5142 17.4816 14.7059 17.2542C14.8692 17.0604 15.0428 16.7047 14.9409 16.1113L14.145 11.4714L17.5161 8.1855C17.9296 7.78244 18.0886 7.31058 17.9523 6.89104Z" fill="#FA5D43"/>
<path d="M67.9523 6.89104C67.816 6.4715 67.41 6.18324 66.8385 6.10016L62.1799 5.42313L60.0963 1.20177C59.8407 0.683899 59.4411 0.386719 59 0.386719C58.5589 0.386719 58.1593 0.683899 57.9037 1.2019L55.8204 5.42313L51.1617 6.10016C50.59 6.18324 50.1839 6.4715 50.0477 6.89104C49.9114 7.31058 50.0705 7.78244 50.4841 8.1855L53.8552 11.4714L53.0593 16.1113C52.9575 16.7047 53.131 17.0603 53.2944 17.2542C53.4861 17.4816 53.7657 17.6068 54.0817 17.6068C54.3194 17.6068 54.5722 17.5372 54.8333 17.4L59 15.2095L63.167 17.4001C63.4279 17.5373 63.6807 17.6068 63.9184 17.6068H63.9186C64.2344 17.6068 64.5142 17.4816 64.7059 17.2542C64.8692 17.0604 65.0428 16.7047 64.9409 16.1113L64.145 11.4714L67.5161 8.1855C67.9296 7.78244 68.0886 7.31058 67.9523 6.89104Z" fill="#FA5D43"/>
<path d="M42.9523 6.89104C42.816 6.4715 42.41 6.18324 41.8385 6.10016L37.1799 5.42313L35.0963 1.20177C34.8407 0.683899 34.4411 0.386719 34 0.386719C33.5589 0.386719 33.1593 0.683899 32.9037 1.2019L30.8204 5.42313L26.1617 6.10016C25.59 6.18324 25.1839 6.4715 25.0477 6.89104C24.9114 7.31058 25.0705 7.78244 25.4841 8.1855L28.8552 11.4714L28.0593 16.1113C27.9575 16.7047 28.131 17.0603 28.2944 17.2542C28.4861 17.4816 28.7657 17.6068 29.0817 17.6068C29.3194 17.6068 29.5722 17.5372 29.8333 17.4L34 15.2095L38.167 17.4001C38.4279 17.5373 38.6807 17.6068 38.9184 17.6068H38.9186C39.2344 17.6068 39.5142 17.4816 39.7059 17.2542C39.8692 17.0604 40.0428 16.7047 39.9409 16.1113L39.145 11.4714L42.5161 8.1855C42.9296 7.78244 43.0886 7.31058 42.9523 6.89104Z" fill="#FA5D43"/>
<path d="M92.9523 6.89104C92.816 6.4715 92.41 6.18324 91.8385 6.10016L87.1799 5.42313L85.0963 1.20177C84.8407 0.683899 84.4411 0.386719 84 0.386719C83.5589 0.386719 83.1593 0.683899 82.9037 1.2019L80.8204 5.42313L76.1617 6.10016C75.59 6.18324 75.1839 6.4715 75.0477 6.89104C74.9114 7.31058 75.0705 7.78244 75.4841 8.1855L78.8552 11.4714L78.0593 16.1113C77.9575 16.7047 78.131 17.0603 78.2944 17.2542C78.4861 17.4816 78.7657 17.6068 79.0817 17.6068C79.3194 17.6068 79.5722 17.5372 79.8333 17.4L84 15.2095L88.167 17.4001C88.4279 17.5373 88.6807 17.6068 88.9184 17.6068H88.9186C89.2344 17.6068 89.5142 17.4816 89.7059 17.2542C89.8692 17.0604 90.0428 16.7047 89.9409 16.1113L89.145 11.4714L92.5161 8.1855C92.9296 7.78244 93.0886 7.31058 92.9523 6.89104Z" fill="#FA5D43"/>
<path d="M117.952 6.89104C117.816 6.4715 117.41 6.18324 116.838 6.10016L112.18 5.42313L110.096 1.20177C109.841 0.683899 109.441 0.386719 109 0.386719C108.559 0.386719 108.159 0.683899 107.904 1.2019L105.82 5.42313L101.162 6.10016C100.59 6.18324 100.184 6.4715 100.048 6.89104C99.9114 7.31058 100.07 7.78244 100.484 8.1855L103.855 11.4714L103.059 16.1113C102.958 16.7047 103.131 17.0603 103.294 17.2542C103.486 17.4816 103.766 17.6068 104.082 17.6068C104.319 17.6068 104.572 17.5372 104.833 17.4L109 15.2095L113.167 17.4001C113.428 17.5373 113.681 17.6068 113.918 17.6068H113.919C114.234 17.6068 114.514 17.4816 114.706 17.2542C114.869 17.0604 115.043 16.7047 114.941 16.1113L114.145 11.4714L117.516 8.1855C117.93 7.78244 118.089 7.31058 117.952 6.89104Z" fill="#C4C4C4"/>
<path fill-rule="evenodd" clip-rule="evenodd" d="M109 0.386719C108.559 0.386719 108.159 0.683899 107.904 1.2019L105.82 5.42313L101.162 6.10016C100.59 6.18324 100.184 6.4715 100.048 6.89104C99.9114 7.31058 100.07 7.78244 100.484 8.1855L103.855 11.4714L103.059 16.1113C102.958 16.7047 103.131 17.0603 103.294 17.2542C103.486 17.4816 103.766 17.6068 104.082 17.6068C104.319 17.6068 104.572 17.5372 104.833 17.4L109 15.2095V0.386719Z" fill="#FA5D43"/>
</svg>
