<svg width="15" height="17" viewBox="0 0 15 17" fill="none" xmlns="http://www.w3.org/2000/svg">
<path d="M14.1429 13.6842C14.1429 14.4877 13.8984 15.1205 13.4096 15.5826C12.9208 16.0513 12.2712 16.2857 11.4609 16.2857H2.68192C1.87165 16.2857 1.2221 16.0513 0.733259 15.5826C0.24442 15.1205 0 14.4877 0 13.6842C0 13.3292 0.0100446 12.9844 0.0301339 12.6496C0.0569196 12.308 0.103795 11.9431 0.170759 11.5547C0.24442 11.1596 0.334821 10.7946 0.441964 10.4598C0.549107 10.125 0.69308 9.80022 0.873884 9.48549C1.05469 9.16406 1.26228 8.89286 1.49665 8.67187C1.73103 8.4442 2.01563 8.26339 2.35045 8.12946C2.69196 7.99554 3.06696 7.92857 3.47545 7.92857C3.53571 7.92857 3.67634 8.00223 3.89732 8.14955C4.1183 8.29018 4.36607 8.45089 4.64062 8.6317C4.92188 8.8058 5.28348 8.96652 5.72545 9.11384C6.17411 9.25446 6.62277 9.32478 7.07143 9.32478C7.52009 9.32478 7.9654 9.25446 8.40737 9.11384C8.85603 8.96652 9.21763 8.8058 9.49219 8.6317C9.77344 8.45089 10.0246 8.29018 10.2455 8.14955C10.4665 8.00223 10.6071 7.92857 10.6674 7.92857C11.0759 7.92857 11.4475 7.99554 11.7824 8.12946C12.1239 8.26339 12.4118 8.4442 12.6462 8.67187C12.8806 8.89286 13.0882 9.16406 13.269 9.48549C13.4498 9.80022 13.5938 10.125 13.7009 10.4598C13.808 10.7946 13.8951 11.1596 13.9621 11.5547C14.0357 11.9431 14.0826 12.308 14.1027 12.6496C14.1295 12.9844 14.1429 13.3292 14.1429 13.6842ZM9.79353 1.99219C10.5502 2.74219 10.9286 3.64955 10.9286 4.71429C10.9286 5.77902 10.5502 6.68973 9.79353 7.44643C9.04353 8.19643 8.13616 8.57143 7.07143 8.57143C6.0067 8.57143 5.09598 8.19643 4.33929 7.44643C3.58929 6.68973 3.21429 5.77902 3.21429 4.71429C3.21429 3.64955 3.58929 2.74219 4.33929 1.99219C5.09598 1.23549 6.0067 0.857142 7.07143 0.857142C8.13616 0.857142 9.04353 1.23549 9.79353 1.99219Z" fill="black" fill-opacity="0.15"/>
</svg>
