<?xml version="1.0" encoding="utf-8"?><svg viewBox="0 0 20 17" xmlns="http://www.w3.org/2000/svg" xmlns:xlink="http://www.w3.org/1999/xlink"><style>:root>svg{display:none}:root>svg:target{display:block}</style><svg fill="none" viewBox="0 0 13 14" id="calendar" xmlns="http://www.w3.org/2000/svg"><path d="M1 13h2.25v-2.25H1V13zm2.75 0h2.5v-2.25h-2.5V13zM1 10.25h2.25v-2.5H1v2.5zm2.75 0h2.5v-2.5h-2.5v2.5zM1 7.25h2.25V5H1v2.25zM6.75 13h2.5v-2.25h-2.5V13zm-3-5.75h2.5V5h-2.5v2.25zm6 5.75H12v-2.25H9.75V13zm-3-2.75h2.5v-2.5h-2.5v2.5zM4 3.5V1.25a.223.223 0 00-.078-.172A.223.223 0 003.75 1h-.5a.247.247 0 00-.18.078.234.234 0 00-.07.172V3.5a.26.26 0 00.07.18.26.26 0 00.18.07h.5a.234.234 0 00.172-.07A.247.247 0 004 3.5zm5.75 6.75H12v-2.5H9.75v2.5zm-3-3h2.5V5h-2.5v2.25zm3 0H12V5H9.75v2.25zM10 3.5V1.25a.223.223 0 00-.078-.172A.223.223 0 009.75 1h-.5a.247.247 0 00-.18.078.234.234 0 00-.07.172V3.5a.26.26 0 00.07.18.26.26 0 00.18.07h.5a.234.234 0 00.172-.07A.247.247 0 0010 3.5zm3-.5v10c0 .27-.099.505-.297.703A.961.961 0 0112 14H1a.961.961 0 01-.703-.297A.961.961 0 010 13V3c0-.27.099-.505.297-.703A.961.961 0 011 2h1v-.75c0-.344.122-.638.367-.883S2.907 0 3.25 0h.5c.344 0 .638.122.883.367S5 .907 5 1.25V2h3v-.75c0-.344.122-.638.367-.883S8.907 0 9.25 0h.5c.344 0 .638.122.883.367s.367.54.367.883V2h1c.27 0 .505.099.703.297A.961.961 0 0113 3z" fill="#fff"/></svg><svg fill="none" viewBox="0 0 9 7" id="check" xmlns="http://www.w3.org/2000/svg"><path d="M8.252 1.787c.093.094.14.207.14.341a.465.465 0 01-.14.342L4.616 6.106l-.684.683a.465.465 0 01-.341.14.465.465 0 01-.342-.14l-.683-.683L.748 4.288a.465.465 0 01-.14-.342c0-.134.047-.247.14-.341l.683-.683a.465.465 0 01.342-.14c.134 0 .248.046.341.14l1.477 1.481 3.295-3.3a.465.465 0 01.341-.14c.134 0 .248.047.342.14l.683.684z" fill="#FA5D43"/></svg><svg fill="none" viewBox="0 0 15 15" id="clock" xmlns="http://www.w3.org/2000/svg"><path d="M7.5.11A7.264 7.264 0 00.234 7.374 7.264 7.264 0 007.5 14.641a7.264 7.264 0 007.266-7.266A7.264 7.264 0 007.5.109zm0 13.124a5.84 5.84 0 01-5.86-5.859 5.858 5.858 0 015.86-5.86c3.223 0 5.86 2.637 5.86 5.86a5.858 5.858 0 01-5.86 5.86zm1.787-3.046c.176.117.381.087.498-.088l.557-.733c.117-.176.088-.38-.088-.498L8.32 7.434v-4.16a.378.378 0 00-.351-.352H7.03a.356.356 0 00-.351.351v4.834c0 .088.029.206.117.264l2.49 1.816z" fill="#fff"/></svg><svg fill="none" viewBox="0 0 16 16" id="icon-btn-1" xmlns="http://www.w3.org/2000/svg"><path d="M7.333 7.467c.134.133.134.266.134.4V15.6c0 .133-.134.267-.267.4s-.133 0-.267 0c-1.466-.667-3.466-1.2-6-1.333-.266 0-.4-.134-.533-.267S0 14 0 13.867V6.8c0-.267.133-.4.267-.667.133-.266.4-.266.666-.266 2.8.266 4.934.8 6.4 1.6zm2.8-6.534c.534.534.934 1.334.934 2.134 0 .8-.4 1.466-.934 2C9.6 5.6 8.8 6 8 6s-1.6-.267-2.133-.933c-.534-.667-.934-1.334-.934-2.134 0-.8.4-1.466.934-2C6.4.4 7.2 0 8 0s1.6.267 2.133.933zM15.067 6c.133 0 .266 0 .533.133.267.134.267.134.4.267s0 .267 0 .4v6.933c0 .267-.133.4-.267.534-.133.133-.266.4-.533.4-2.533.133-4.533.533-6 1.333-.133 0-.267.133-.267 0s-.133-.133-.266-.133c-.134 0-.134-.134-.134-.267V7.867c0-.134 0-.267.134-.4 1.466-.8 3.6-1.334 6.4-1.467z" fill="#fff"/></svg><svg fill="none" viewBox="0 0 20 16" id="icon-btn-2" xmlns="http://www.w3.org/2000/svg"><path d="M6.533 11.067c.934 0 1.867.4 2.534 1.066.666.667 1.066 1.467 1.066 2.534 0 .4-.133.8-.4 1.066-.266.267-.8.267-1.2.267H1.467c-.4 0-.8-.133-1.067-.4-.267-.267-.4-.667-.4-1.067C0 13.6.4 12.667 1.067 12c.666-.667 1.466-1.067 2.533-1.067h.267c.4.134.8.267 1.333.267.533 0 .8-.133 1.333-.267-.133.134-.133.134 0 .134zm.534-2C6.533 9.6 5.733 10 4.933 10c-.8 0-1.466-.267-2-.933C2.4 8.4 2 7.733 2 6.933c0-.8.267-1.6.933-2.133.667-.533 1.2-.8 2.134-.8.933 0 1.6.267 2.133.933.533.667.8 1.2.8 2.134 0 .933-.267 1.466-.933 2zM18.533 0c.4 0 .8.133 1.067.4.267.267.4.667.4 1.2v9.867c0 .4-.133.8-.4 1.066-.267.267-.667.4-1.067.4H10.8c-.133-.666-.533-1.333-1.2-1.866H12v-2h4v2h2V2H7.067v1.6c-.667-.4-1.334-.533-2-.533V1.6c0-.4.133-.8.4-1.067C5.733.267 6.133 0 6.533 0h12z" fill="#fff"/></svg><svg viewBox="0 0 5 9" id="next" xmlns="http://www.w3.org/2000/svg"><path d="M4.568 4.32a.247.247 0 010 .36L.928 8.32a.247.247 0 01-.36 0l-.39-.39a.247.247 0 010-.36l3.07-3.07-3.07-3.07a.247.247 0 010-.36l.39-.39a.247.247 0 01.36 0l3.64 3.64z" fill-opacity=".2"/></svg><svg viewBox="0 0 11 9" id="next-two" xmlns="http://www.w3.org/2000/svg"><path d="M5.066 4.32a.247.247 0 010 .36l-3.64 3.64a.247.247 0 01-.36 0l-.39-.39a.247.247 0 010-.36l3.07-3.07-3.07-3.07a.247.247 0 010-.36l.39-.39a.247.247 0 01.36 0l3.64 3.64zm5.004 0a.247.247 0 010 .36L6.43 8.32a.247.247 0 01-.36 0l-.39-.39a.247.247 0 010-.36L8.75 4.5 5.68 1.43a.247.247 0 010-.36l.39-.39a.247.247 0 01.36 0l3.64 3.64z" fill-opacity=".2"/></svg><svg viewBox="0 0 5 9" id="prev" xmlns="http://www.w3.org/2000/svg"><path d="M4.818 1.07a.247.247 0 010 .36L1.748 4.5l3.07 3.07a.247.247 0 010 .36l-.39.39a.247.247 0 01-.36 0L.428 4.68a.247.247 0 010-.36L4.068.68a.247.247 0 01.36 0l.39.39z" fill-opacity=".2"/></svg><svg viewBox="0 0 11 9" id="prev-two" xmlns="http://www.w3.org/2000/svg"><path d="M5.316 1.07a.247.247 0 010 .36L2.246 4.5l3.07 3.07a.247.247 0 010 .36l-.39.39a.247.247 0 01-.36 0L.926 4.68a.247.247 0 010-.36L4.566.68a.247.247 0 01.36 0l.39.39zm5.004 0a.247.247 0 010 .36L7.25 4.5l3.07 3.07a.247.247 0 010 .36l-.39.39a.247.247 0 01-.36 0L5.93 4.68a.247.247 0 010-.36L9.57.68a.247.247 0 01.36 0l.39.39z" fill-opacity=".2"/></svg><svg viewBox="0 0 14 13" id="search" xmlns="http://www.w3.org/2000/svg"><path d="M8.468 7.977c.687-.688 1.031-1.513 1.031-2.477s-.344-1.786-1.031-2.469A3.352 3.352 0 005.999 2c-.964 0-1.789.344-2.477 1.031A3.364 3.364 0 002.5 5.5c0 .964.341 1.79 1.023 2.477A3.39 3.39 0 006 9c.964 0 1.786-.341 2.469-1.023zM13.499 12a.96.96 0 01-.297.703.96.96 0 01-.703.297.929.929 0 01-.703-.297l-2.68-2.672A5.35 5.35 0 016 11a5.474 5.474 0 01-2.14-.43A5.647 5.647 0 012.1 9.398 5.646 5.646 0 01.929 7.641 5.475 5.475 0 01.499 5.5c0-.745.143-1.456.43-2.133A5.527 5.527 0 012.1 1.61 5.471 5.471 0 013.858.437 5.39 5.39 0 016 0c.745 0 1.456.146 2.133.437A5.36 5.36 0 019.89 1.61a5.36 5.36 0 011.171 1.758c.292.677.438 1.388.438 2.133a5.35 5.35 0 01-.969 3.117l2.68 2.68a.957.957 0 01.289.703z"/></svg><svg fill="none" viewBox="0 0 15 17" id="user" xmlns="http://www.w3.org/2000/svg"><path d="M14.143 13.684c0 .804-.245 1.437-.733 1.899-.49.468-1.139.703-1.95.703H2.683c-.81 0-1.46-.235-1.949-.703C.244 15.12 0 14.488 0 13.684c0-.355.01-.7.03-1.034.027-.342.074-.707.14-1.095.074-.395.165-.76.272-1.095a5.03 5.03 0 01.432-.975c.18-.32.388-.592.623-.813.234-.228.519-.409.853-.543.342-.133.717-.2 1.125-.2.06 0 .201.073.422.22.221.141.47.302.744.483.28.174.642.335 1.084.482a4.383 4.383 0 002.682 0c.449-.147.81-.308 1.085-.482l.753-.482c.222-.148.362-.221.422-.221.409 0 .78.067 1.115.2.342.134.63.315.864.543.235.22.442.492.623.813.18.315.325.64.432.975.107.335.194.7.261 1.095.074.388.12.753.14 1.095.027.334.04.68.04 1.034zM9.793 1.992a3.692 3.692 0 011.136 2.722c0 1.065-.379 1.976-1.135 2.732-.75.75-1.658 1.125-2.723 1.125A3.741 3.741 0 014.34 7.446a3.741 3.741 0 01-1.125-2.732c0-1.064.375-1.972 1.125-2.722C5.096 1.235 6.007.857 7.071.857c1.065 0 1.973.378 2.723 1.135z" fill="#000" fill-opacity=".15"/></svg></svg>